P2
10 10
255
255 0 0 0 0 0 0 0 0 0 0 127 0 0 0 0 0 0 0 0 0 0 85 0 0 0 0 0 0 0 0 0 0 63 0 0 0 0 0 0 0 0 0 0 51 0 0 0 0 0 0 0 0 0 0 42 0 0 0 0 0 0 0 0 0 0 36 0 0 0 0 0 0 0 0 0 0 31 0 0 0 0 0 0 0 0 0 0 28 0 0 0 0 0 0 0 0 0 0 25 